<svg xmlns="http://www.w3.org/2000/svg" width="128" height="128" viewBox="0 0 24 24"><g fill="none" stroke="#0284c7" stroke-linecap="round" stroke-linejoin="round" stroke-width="1.5"><path d="M5.75 9.415H4.568c-.98 0-1.775.794-1.775 1.775v8.284c0 .98.795 1.776 1.775 1.776h1.184c.98 0 1.775-.795 1.775-1.776V11.19c0-.98-.795-1.775-1.775-1.775"/><path d="m21.16 12.243l-1.42 7.101a2.367 2.367 0 0 1-2.367 1.906h-7.48a2.367 2.367 0 0 1-2.367-2.367v-7.101A3.231 3.231 0 0 1 8.71 9.415l.982-5.918a.888.888 0 0 1 1.278-.65l1.1.544a3.55 3.55 0 0 1 1.87 4.047l-.496 1.965h5.396a2.367 2.367 0 0 1 2.32 2.84"/></g></svg>