<?xml version="1.0" encoding="UTF-8"?>
<svg id="_图层_1" data-name="图层 1" xmlns="http://www.w3.org/2000/svg" viewBox="0 0 565.51 103.78">
  <defs>
    <style>
      .cls-1 {
        fill: #06383c;
      }

      .cls-1, .cls-2 {
        stroke-width: 0px;
      }

      .cls-2 {
        fill: #ed6c00;
      }
    </style>
  </defs>
  <path class="cls-2" d="M34.86,89.41v-17.01c-.08-1.18-1.07-2.12-2.26-2.12l.05-.03c-6.61-.15-12.65-.82-17.53-1.83-.45-.09-1.06-.07-1.33.38-.28.48-.15.84,0,1.41.16.58.87,2.98.87,2.98.47,2.02,3.17,2.51,4.89,2.88l7.7,1.67c3.71.8,4.72,3.68,4.72,7.49v3.38c0,2.97-.49,4.88-2.47,4.97-2.5.12-4.31-2.37-5.28-4.53-.03-.05-.05-.09-.07-.14l-.03-.07c-.09-.19-.16-.38-.23-.56-.65-1.62-2.13-5.2-2.13-5.2,0,0-.19-.64-.5-.85-.31-.22-.59-.29-.97-.29h-2.6l3.36,11.63c.69,2.39,1.52,5.14,3.41,6.89,2.32,2.18,6.08,3.35,11.08,3.35s8.78-1.17,11.09-3.35c1.88-1.75,2.72-4.5,3.41-6.89l3.35-11.63h-2.6c-.38,0-.66.08-.98.29-.3.21-.5.85-.5.85,0,0-1.47,3.58-2.13,5.2-.07.18-.14.37-.23.56l-.02.07s-.04.09-.06.14c-.98,2.16-2.8,4.65-5.3,4.53-1.96-.09-2.45-2-2.46-4.97v-3.38c0-3.81,1.01-6.69,4.73-7.49l7.68-1.67c1.73-.37,4.43-.85,4.89-2.88,0,0,.71-2.41.88-2.98.15-.57.28-.93,0-1.41-.27-.45-.87-.47-1.32-.38-4.89,1.02-10.92,1.68-17.54,1.83l.06.03c-1.2,0-2.18.94-2.27,2.12v17.01c0,.38-.3.69-.68.69s-.68-.31-.68-.69"/>
  <path class="cls-2" d="M35.93,2.25s-5.23,2.91-7.1,6.86c-.8,1.67-.34,2.73,2.68.87,4.3-2.65,8.18-4.65,12.79-6.28C49.39,1.89,58.7-.29,59.37.03c.27.13.29.66-.24,1.15-13.19,12.12-14.61,21.15-11.02,22.58,1.78.7,4.78.29,7.45-.58,2.67-.87,5.28-2,8.27-2.09,7.04-.22,9.99,13.13,2.39,25.78-4.26,7.09-15.61,16.11-16.43,15.78-.37-.14-.48-.54-.33-1.2.11-.43,4.18-9.4.95-10.82-.5-.22-1.76.13-2.96,2.98-1.54,3.68-2.72,4.36-3.36,4.2-.63-.15-.41-1.17-.31-1.86.1-.69.24-1.26-.14-1.02-.38.25-4,4.34-5.15,4.24-.41-.04-.67-.47-.4-1.08.26-.6.53-1.42.53-1.42,0,0-6.25,6.07-13.89,7.53-.57.11-2.09.48-2.58.22-.25-.13-.45-.77.05-1.1.49-.33,8.58-4.52,12.08-10.41,1.06-1.79,1.09-2.7.8-3.17-.7-1.22-4.15-.02-6.41.94-2.26.97-5.66,2.94-9.97,3.67-5.35.91-11.73-.71-15.02-4.81C-.09,44.8-.32,40.15.22,35.42c1.69-14.8,15.84-24.19,20.75-27.21,5.92-3.65,14.71-7.44,15.39-7.17.35.14.5.67-.42,1.21"/>
  <path class="cls-1" d="M144.47,35.13v34.91c0,8.3.21,12.04,2.67,15.3,2.46,3.36,6.74,4.95,10.91,4.95,3.95,0,9.29-1.59,11.64-6.07,1.6-2.71,2.35-5.6,2.35-14.28v-34.82h9.3v35.1c0,4.39,1.92,27.44-25.86,27.44-3.95,0-16.14-.47-22.11-11.02-2.14-3.73-2.57-8.03-2.57-15.02v-36.5h13.69Z"/>
  <path class="cls-1" d="M221.74,43.43c-3.52-1.21-6.73-2.15-10.9-2.15-6.73,0-10.47,3.08-10.47,7.28,0,2.99,1.93,5.79,8.44,10.08l4.28,2.89c8.98,5.97,15.07,10.36,15.07,18.95,0,9.61-8.54,17.17-22.11,17.17-7.92,0-14.31-2.84-17.84-4.42v-8.08s4.16,2.05,4.16,2.05c3.96,1.78,8.12,3.45,13.36,3.45,7.05,0,10.26-3.92,10.26-7.65,0-4.02-3.21-6.63-9.4-10.83l-4.28-2.99c-7.58-5.04-14.1-10.27-14.1-18.57,0-9.15,9.19-16.34,22.01-16.34,5.37,0,9.78.97,13.18,2.18v7.72s-1.64-.76-1.64-.76Z"/>
  <path class="cls-1" d="M119.01,43.43c-3.52-1.21-6.73-2.15-10.9-2.15-6.73,0-10.48,3.08-10.48,7.28,0,2.99,1.92,5.79,8.45,10.08l4.28,2.89c8.97,5.97,15.07,10.36,15.07,18.95,0,9.61-8.55,17.17-22.12,17.17-7.92,0-14.31-2.84-17.84-4.42v-8.08s4.16,2.05,4.16,2.05c3.95,1.78,8.12,3.45,13.36,3.45,7.05,0,10.25-3.92,10.25-7.65,0-4.02-3.2-6.63-9.4-10.83l-4.28-2.99c-7.59-5.04-14.1-10.27-14.1-18.57,0-9.15,9.19-16.34,22.01-16.34,5.36,0,9.79.97,13.18,2.18v7.72s-1.65-.76-1.65-.76Z"/>
  <polygon class="cls-1" points="279.71 35.13 279.71 42.12 261.33 42.12 261.33 96.73 247.76 96.73 247.76 42.12 229.27 42.12 229.27 35.13 279.71 35.13"/>
  <path class="cls-1" d="M304.24,73.48c-.11-2.19-.64-4.46-2.09-6.15-1.49-1.74-3.52-2.38-5.78-2.38-2.38,0-4.33.9-5.99,2.58-1.64,1.67-2.6,3.72-3.09,5.95h16.95ZM363.07,63.23c2.75-3.36,6.42-5.14,11.05-5.14,9.7,0,13.03,6.68,13.03,15.57v23.08h-8.08v-21.61c0-5.12-1.26-10.05-7.24-10.05-2.53,0-4.58.97-6.24,2.89-1.82,2.11-2.53,4.69-2.53,7.45v21.32h-8.1v-55.14h8.1v21.63ZM347.37,94.98c-3.17,1.9-6.78,2.61-10.44,2.61-5.1,0-9.66-1.56-13.21-5.3-3.57-3.77-5-8.46-5-13.61,0-5.57,1.48-10.79,5.37-14.9,3.84-4.07,8.85-5.69,14.38-5.69,3.04,0,6.13.47,8.87,1.85l.47.24v8.54l-1.36-1c-2.38-1.75-5.02-2.64-7.98-2.64-3.28,0-6.08,1.07-8.29,3.52-2.4,2.65-3.22,6.06-3.22,9.56,0,3.31.71,6.68,3.01,9.18,2.17,2.35,4.99,3.26,8.14,3.26s5.84-1.08,8.3-2.91l1.37-1.02v8.06l-.41.25ZM287.16,80.32c.19,2.73.94,5.46,2.87,7.49,2.06,2.16,4.86,2.88,7.78,2.88,3.96,0,7.47-1.3,10.61-3.7l1.38-1.05v7.88l-.37.26c-3.8,2.69-8.55,3.52-13.13,3.52-4.98,0-9.51-1.46-12.86-5.25-3.5-3.95-4.6-9.18-4.6-14.34s1.44-10.24,5.02-14.25c3.36-3.75,7.57-5.67,12.61-5.67,4.55,0,8.67,1.36,11.71,4.84,3.21,3.68,4.19,8.55,4.19,13.3v4.09h-25.21Z"/>
  <path class="cls-1" d="M498.76,84.3l-3.57,9.72c-.55,1.45-1.04,2.4-1.47,2.84-.43.45-1.08.67-1.94.67-.28,0-.54-.02-.76-.09v-1.48c.24.09.54.14.9.15.36,0,.65-.15.89-.44.24-.3.51-.84.82-1.65l.03-.15h0s-3.49-9.57-3.49-9.57h1.8l2.51,7.77,2.54-7.77h1.73ZM484.41,85.45c-.89,0-1.53.29-1.93.85-.41.56-.61,1.46-.61,2.69,0,1.16.22,2.05.66,2.67.44.63,1.07.94,1.88.94.76,0,1.38-.29,1.85-.86.47-.58.7-1.33.7-2.28,0-1.33-.21-2.33-.63-3-.42-.67-1.06-1-1.92-1M484.11,96.38c.91,0,1.6-.29,2.07-.86.47-.58.71-1.41.71-2.5v-.31h0c-.66.84-1.5,1.26-2.55,1.26-1.26,0-2.26-.47-3.01-1.41-.74-.94-1.11-2.22-1.11-3.82,0-1.42.36-2.55,1.09-3.42.74-.87,1.7-1.3,2.88-1.3s2.03.49,2.69,1.46l.11.17v-1.35h1.49v8.72c0,1.59-.37,2.76-1.07,3.53-.71.76-1.79,1.14-3.26,1.14-1.07,0-1.91-.25-2.54-.74-.62-.49-1-1.2-1.13-2.13h1.62c.09.5.32.88.67,1.15.36.28.8.42,1.35.42M474.01,92.59c.83,0,1.49-.33,1.99-.98.49-.65.74-1.53.74-2.63s-.24-1.97-.74-2.63c-.49-.65-1.15-.98-1.99-.98s-1.49.33-1.98.98c-.49.66-.73,1.53-.73,2.63s.24,1.98.73,2.63c.49.65,1.15.98,1.98.98M474.01,93.96c-1.3,0-2.35-.46-3.16-1.37-.81-.92-1.21-2.12-1.21-3.6s.4-2.69,1.21-3.61c.81-.91,1.86-1.37,3.16-1.37s2.37.46,3.17,1.37c.8.92,1.2,2.12,1.2,3.61s-.4,2.69-1.2,3.6c-.8.92-1.86,1.37-3.17,1.37M465.75,93.71v-12.92h1.58v12.92h-1.58ZM459.07,92.59c.83,0,1.49-.33,1.99-.98.49-.65.74-1.53.74-2.63s-.25-1.97-.74-2.63c-.5-.65-1.16-.98-1.99-.98s-1.49.33-1.98.98c-.49.66-.73,1.53-.73,2.63s.24,1.98.73,2.63c.49.65,1.15.98,1.98.98M459.07,93.96c-1.3,0-2.35-.46-3.16-1.37-.8-.92-1.21-2.12-1.21-3.6s.41-2.69,1.21-3.61c.81-.91,1.86-1.37,3.16-1.37s2.37.46,3.17,1.37c.8.92,1.2,2.12,1.2,3.61s-.4,2.69-1.2,3.6c-.81.92-1.86,1.37-3.17,1.37M444.76,93.71v-9.41h1.51v1.38l.35-.47c.69-.8,1.54-1.2,2.57-1.2s1.84.28,2.4.84c.56.56.84,1.36.84,2.4v6.45h-1.58v-5.92c0-.83-.16-1.42-.48-1.79-.32-.37-.83-.55-1.54-.55-.77,0-1.37.29-1.81.87-.45.58-.67,1.36-.67,2.35v5.04h-1.58ZM434.28,93.71v-12.92h1.58v4.77l.27-.35c.68-.8,1.54-1.2,2.57-1.2s1.84.28,2.4.84c.56.56.84,1.36.84,2.4v6.45h-1.58v-6.06c0-.78-.15-1.34-.45-1.68-.3-.34-.79-.52-1.46-.52-.8,0-1.43.29-1.89.87-.47.58-.7,1.36-.7,2.35v5.04h-1.58ZM432.23,90.32h0c-.17,1.19-.58,2.09-1.26,2.71-.67.62-1.57.93-2.69.93-1.24,0-2.23-.45-2.97-1.35-.75-.89-1.12-2.1-1.12-3.62s.38-2.73,1.15-3.63c.77-.9,1.8-1.35,3.1-1.35,1.13,0,2.03.31,2.71.92.67.62,1.03,1.47,1.08,2.55h-1.51c-.07-.67-.3-1.19-.71-1.55-.4-.37-.94-.55-1.62-.55-.8,0-1.42.32-1.87.96-.46.64-.68,1.52-.68,2.65,0,1.19.21,2.09.63,2.7.42.6,1.05.9,1.88.9.62,0,1.13-.2,1.54-.59.42-.39.69-.95.82-1.68h1.51ZM420.8,88.27h0c-.04-.87-.26-1.54-.65-2.03-.42-.54-1.05-.81-1.88-.81s-1.5.31-2,.93c-.39.49-.62,1.12-.71,1.91h5.24ZM418.16,93.96c-1.33,0-2.37-.42-3.14-1.27-.76-.85-1.14-2.01-1.14-3.5,0-1.58.41-2.84,1.21-3.78.81-.94,1.89-1.4,3.25-1.4,1.22,0,2.22.46,2.98,1.37.76.92,1.14,2.12,1.14,3.61l-.03.57h-6.86c.07.94.29,1.64.64,2.14.44.6,1.14.9,2.11.9.6,0,1.13-.17,1.57-.51.45-.34.73-.77.83-1.29h1.56c-.23,1.03-.7,1.81-1.41,2.35-.69.54-1.6.81-2.72.81M406.33,93.71v-11.37h-4.37v-1.55h10.49v1.55h-4.37v11.37h-1.75ZM518.76,62.3c-.88,0-1.53.28-1.94.85-.41.57-.61,1.47-.61,2.7,0,1.17.22,2.06.66,2.69.45.62,1.08.94,1.89.94.77,0,1.39-.29,1.86-.87.46-.58.7-1.35.7-2.3,0-1.28-.22-2.27-.66-2.97-.44-.7-1.08-1.05-1.89-1.05M518.67,70.83c-1.25,0-2.25-.47-3.01-1.41-.74-.94-1.11-2.21-1.11-3.81,0-1.42.36-2.56,1.08-3.43.72-.87,1.66-1.3,2.82-1.3s2.07.49,2.74,1.47l.12.18v-4.86h1.58v12.92h-1.47v-1.28l-.2.29c-.65.83-1.5,1.25-2.56,1.25M504.61,70.58v-9.41h1.5v1.38l.35-.47c.69-.8,1.54-1.2,2.57-1.2s1.83.28,2.4.84c.56.56.84,1.37.84,2.41v6.45h-1.58v-5.91c0-.83-.16-1.42-.48-1.79-.31-.37-.83-.55-1.54-.55-.76,0-1.37.29-1.81.87-.45.58-.67,1.36-.67,2.34v5.04h-1.58ZM499.89,66.85v-1.02c-.29.14-.62.23-.97.29l-1.46.21c-.76.1-1.32.28-1.67.53-.36.25-.53.59-.53,1.02,0,.53.14.93.43,1.22.28.28.69.43,1.22.43.83,0,1.53-.22,2.11-.68.39-.31.65-.67.78-1.07.02-.08.04-.2.05-.37.01-.17.03-.36.03-.57M496.61,70.83c-.92,0-1.65-.24-2.19-.73-.54-.49-.81-1.16-.81-2s.25-1.51.76-2.01c.51-.5,1.25-.8,2.22-.93l2.15-.27c.18-.01.34-.04.5-.09.2-.05.36-.15.47-.31.11-.16.17-.36.17-.6v-.09c0-.5-.19-.9-.57-1.19-.39-.28-.92-.43-1.6-.43s-1.16.15-1.52.45c-.37.3-.59.75-.67,1.35h-1.46c.07-1.03.44-1.81,1.09-2.32.65-.52,1.58-.78,2.79-.78,1.14,0,2.02.25,2.62.74.6.5.9,1.22.9,2.17v5.18c0,.15.05.28.15.38.1.1.23.15.39.15.05,0,.12,0,.21-.02.1-.01.19-.03.3-.05v1.14c-.16.06-.31.11-.48.14-.18.04-.32.05-.44.05-.6,0-1.04-.16-1.3-.5-.17-.21-.3-.52-.38-.92-.12.15-.25.29-.41.42-.79.71-1.76,1.06-2.9,1.06M486.12,65.14h0c-.04-.87-.26-1.55-.64-2.03-.43-.54-1.06-.81-1.88-.81s-1.49.3-2,.93c-.39.49-.63,1.12-.71,1.91h5.23ZM483.49,70.83c-1.33,0-2.38-.42-3.14-1.26-.76-.85-1.14-2.01-1.14-3.51,0-1.58.4-2.84,1.21-3.78.8-.93,1.88-1.4,3.24-1.4,1.23,0,2.23.46,2.98,1.37.76.92,1.13,2.12,1.13,3.61l-.02.57h-6.86c.06.94.27,1.65.64,2.15.44.6,1.15.89,2.11.89.6,0,1.13-.17,1.58-.5.45-.34.73-.77.82-1.29h1.57c-.24,1.03-.71,1.81-1.41,2.35-.71.54-1.61.81-2.72.81M477.6,67.2h0c-.16,1.18-.57,2.08-1.25,2.7-.67.62-1.57.93-2.69.93-1.25,0-2.24-.45-2.99-1.34-.74-.9-1.12-2.11-1.12-3.63s.39-2.72,1.16-3.63c.77-.9,1.81-1.35,3.11-1.35,1.13,0,2.03.3,2.7.92.67.62,1.03,1.47,1.08,2.55h-1.51c-.06-.67-.3-1.19-.7-1.55-.41-.37-.94-.55-1.61-.55-.8,0-1.43.33-1.88.96-.45.64-.68,1.52-.68,2.65,0,1.19.21,2.1.63,2.7.42.6,1.05.9,1.88.9.62,0,1.13-.2,1.54-.59.42-.39.69-.95.82-1.68h1.51ZM459.71,70.58v-9.41h1.5v1.38l.35-.47c.69-.8,1.54-1.2,2.57-1.2s1.84.28,2.4.84c.56.56.84,1.37.84,2.41v6.45h-1.58v-5.91c0-.83-.16-1.42-.48-1.79-.32-.37-.84-.55-1.54-.55-.77,0-1.37.29-1.81.87-.44.58-.66,1.36-.66,2.34v5.04h-1.58ZM455.7,65.14h0c-.04-.87-.26-1.55-.64-2.03-.43-.54-1.06-.81-1.88-.81s-1.5.3-2,.93c-.4.49-.63,1.12-.71,1.91h5.23ZM453.06,70.83c-1.33,0-2.38-.42-3.13-1.26-.77-.85-1.15-2.01-1.15-3.51,0-1.58.4-2.84,1.21-3.78.81-.93,1.89-1.4,3.24-1.4,1.23,0,2.22.46,2.98,1.37.75.92,1.13,2.12,1.13,3.61l-.02.57h-6.86c.06.94.27,1.65.63,2.15.45.6,1.15.89,2.11.89.6,0,1.13-.17,1.58-.5.45-.34.73-.77.82-1.29h1.56c-.23,1.03-.7,1.81-1.41,2.35-.7.54-1.61.81-2.72.81M444.79,57.64h1.63v1.8h-1.63v-1.8ZM444.82,70.58v-9.41h1.58v9.41h-1.58ZM442.71,67.2h0c-.17,1.18-.58,2.08-1.26,2.7-.67.62-1.57.93-2.69.93-1.25,0-2.25-.45-2.99-1.34-.74-.9-1.12-2.11-1.12-3.63s.39-2.72,1.16-3.63c.77-.9,1.8-1.35,3.1-1.35,1.13,0,2.03.3,2.71.92.67.62,1.03,1.47,1.08,2.55h-1.52c-.06-.67-.29-1.19-.7-1.55-.41-.37-.94-.55-1.62-.55-.81,0-1.43.33-1.88.96-.45.64-.68,1.52-.68,2.65,0,1.19.21,2.1.64,2.7.42.6,1.05.9,1.88.9.61,0,1.13-.2,1.54-.59.41-.39.69-.95.82-1.68h1.52ZM430.9,61.4h0c-.08-.82-.4-1.45-.96-1.89-.56-.44-1.33-.67-2.29-.67s-1.74.19-2.25.57c-.51.38-.76.94-.76,1.67,0,.5.17.87.51,1.12.33.24,1.03.49,2.05.73l2.26.54c1.21.29,2.07.71,2.58,1.28.52.55.78,1.34.78,2.37,0,1.17-.44,2.1-1.34,2.79-.88.69-2.09,1.03-3.6,1.03-1.69,0-3.01-.4-3.95-1.19-.93-.78-1.39-1.84-1.39-3.2v-.09h1.6c.03.93.36,1.66,1.02,2.17.65.51,1.55.76,2.72.76,1.07,0,1.89-.19,2.45-.55.55-.37.83-.91.83-1.63,0-.61-.18-1.08-.55-1.38-.37-.29-1.1-.57-2.2-.84l-2.25-.54c-1.14-.27-1.95-.64-2.44-1.12-.48-.48-.73-1.15-.73-2,0-1.23.42-2.21,1.26-2.94.84-.72,1.97-1.08,3.41-1.08s2.61.36,3.47,1.09c.86.74,1.33,1.73,1.38,3.02h-1.6ZM415.31,62.5h0v8.08h-1.58v-8.08h-1.3v-1.31h1.3v-1.6c0-.7.2-1.22.61-1.57.41-.35,1.03-.53,1.85-.53l.69.02v1.42l-.62-.02c-.3,0-.53.1-.7.29-.16.19-.25.47-.25.84v1.15h1.57v1.31h-1.57ZM406.7,69.46c.83,0,1.49-.33,1.98-.98.49-.65.74-1.52.74-2.63s-.25-1.97-.74-2.62c-.49-.65-1.15-.99-1.98-.99s-1.49.33-1.99.99c-.49.65-.73,1.52-.73,2.62s.24,1.98.73,2.63c.49.65,1.15.98,1.99.98M406.7,70.83c-1.3,0-2.35-.46-3.16-1.37-.81-.91-1.21-2.12-1.21-3.61s.4-2.69,1.21-3.6c.81-.91,1.85-1.37,3.16-1.37s2.37.46,3.17,1.37c.8.91,1.2,2.12,1.2,3.6s-.4,2.69-1.2,3.61c-.8.91-1.86,1.37-3.17,1.37M565.51,38.04l-3.58,9.72c-.55,1.45-1.04,2.4-1.47,2.84-.43.45-1.08.67-1.94.67-.28,0-.54-.03-.77-.09v-1.48c.24.1.54.14.9.14.36,0,.65-.14.89-.44.24-.29.51-.84.82-1.65l.03-.15h0s-3.49-9.57-3.49-9.57h1.8l2.51,7.78,2.54-7.78h1.73ZM555.88,47.43c-.54.09-.93.12-1.18.12-.69,0-1.18-.15-1.47-.45-.29-.31-.43-.83-.43-1.58v-6.21h-1.3v-1.28h1.3v-2.63h1.58v2.63h1.5v1.28h-1.5v6.21c0,.21.08.38.25.5.17.13.4.19.67.19h.57v1.22ZM547.99,34.52h1.62v1.79h-1.62v-1.79ZM548.01,47.45v-9.41h1.58v9.41h-1.58ZM543.87,40.75h0c-.05-.52-.26-.92-.64-1.21-.38-.29-.89-.43-1.52-.43s-1.16.11-1.51.34c-.34.23-.51.56-.51,1,0,.34.12.58.37.75.23.17.72.34,1.43.51l1.63.39c.92.22,1.57.53,1.96.92.39.39.58.93.58,1.63,0,.93-.34,1.67-1.01,2.22-.67.54-1.58.81-2.72.81-1.33,0-2.32-.26-2.96-.78-.66-.53-1.02-1.35-1.09-2.47h1.51c.08.66.32,1.14.71,1.44.4.3,1.01.45,1.82.45.71,0,1.25-.14,1.62-.41.37-.27.55-.66.55-1.17,0-.33-.12-.58-.36-.75-.24-.16-.73-.34-1.46-.51l-1.63-.38c-.89-.21-1.52-.51-1.89-.89-.38-.38-.56-.9-.56-1.58,0-.89.31-1.59.94-2.1.63-.52,1.49-.78,2.57-.78s1.96.27,2.62.8c.65.53,1,1.27,1.04,2.21h-1.5ZM532.24,47.45v-9.41h1.51v1.61c.14-.25.27-.48.43-.69.6-.81,1.33-1.21,2.21-1.21.14,0,.29.03.44.08v1.62h-.32c-.86,0-1.52.25-1.99.76-.46.51-.7,1.24-.7,2.19v5.04h-1.59ZM528.02,42.01h0c-.04-.87-.26-1.55-.65-2.03-.43-.54-1.06-.8-1.88-.8s-1.5.3-2,.93c-.39.48-.63,1.12-.71,1.91h5.24ZM525.37,47.7c-1.33,0-2.37-.42-3.13-1.26-.76-.85-1.14-2.02-1.14-3.5,0-1.58.4-2.85,1.21-3.78.8-.94,1.88-1.4,3.25-1.4,1.23,0,2.22.46,2.98,1.37.76.92,1.13,2.12,1.13,3.61l-.02.57h-6.86c.06.94.27,1.65.64,2.14.45.6,1.15.9,2.11.9.6,0,1.13-.17,1.58-.51.45-.34.73-.77.83-1.29h1.56c-.23,1.03-.71,1.81-1.41,2.35-.7.54-1.61.81-2.72.81M511.05,38.04h1.85l2.52,7.7,2.6-7.7h1.74l-3.5,9.41h-1.7l-3.51-9.41ZM507.65,34.52h1.62v1.79h-1.62v-1.79ZM507.67,47.45v-9.41h1.58v9.41h-1.58ZM497.14,47.45v-9.41h1.51v1.38l.35-.46c.68-.8,1.54-1.2,2.56-1.2s1.84.28,2.4.85c.56.56.84,1.36.84,2.4v6.45h-1.58v-5.92c0-.83-.16-1.42-.48-1.79-.33-.37-.84-.55-1.55-.55-.77,0-1.37.29-1.81.86-.45.58-.67,1.36-.67,2.35v5.04h-1.58ZM494.09,42.72c0,1.59-.45,2.85-1.35,3.74-.9.91-2.14,1.36-3.73,1.36s-2.92-.43-3.79-1.3c-.87-.86-1.31-2.13-1.31-3.79v-8.19h1.75v8.05c0,1.2.28,2.12.85,2.74.57.62,1.4.93,2.49.93s1.92-.31,2.48-.93c.57-.63.85-1.54.85-2.74v-8.05h1.75v8.19ZM469.19,47.45v-9.41h1.51v1.38l.35-.46c.69-.8,1.54-1.2,2.57-1.2s1.83.28,2.4.85c.56.56.84,1.36.84,2.4v6.45h-1.58v-5.92c0-.83-.16-1.42-.47-1.79-.33-.37-.84-.55-1.55-.55-.76,0-1.36.29-1.81.86-.45.58-.67,1.36-.67,2.35v5.04h-1.58ZM462.95,47.45v-9.41h1.5v1.61c.14-.25.28-.48.43-.69.59-.81,1.33-1.21,2.2-1.21.15,0,.29.03.45.08v1.62h-.32c-.86,0-1.52.25-1.98.76-.47.51-.7,1.24-.7,2.19v5.04h-1.58ZM458.73,42.01h0c-.05-.87-.27-1.55-.66-2.03-.42-.54-1.05-.8-1.88-.8s-1.5.3-2,.93c-.39.48-.63,1.12-.71,1.91h5.24ZM456.08,47.7c-1.33,0-2.38-.42-3.14-1.26-.76-.85-1.14-2.02-1.14-3.5,0-1.58.41-2.85,1.21-3.78.8-.94,1.88-1.4,3.25-1.4,1.22,0,2.22.46,2.97,1.37.76.92,1.13,2.12,1.13,3.61l-.02.57h-6.86c.07.94.28,1.65.64,2.14.44.6,1.14.9,2.1.9.6,0,1.13-.17,1.58-.51.45-.34.73-.77.82-1.29h1.57c-.24,1.03-.71,1.81-1.41,2.35-.71.54-1.6.81-2.72.81M441.77,47.45v-12.92h1.58v4.77l.27-.35c.68-.8,1.54-1.2,2.57-1.2s1.83.28,2.4.85c.56.56.84,1.36.84,2.4v6.45h-1.58v-6.06c0-.78-.15-1.34-.45-1.69-.3-.35-.78-.51-1.45-.51-.8,0-1.43.29-1.9.86-.47.58-.7,1.36-.7,2.35v5.04h-1.58ZM439.76,47.43c-.54.09-.94.12-1.18.12-.69,0-1.18-.15-1.47-.45-.28-.31-.43-.83-.43-1.58v-6.21h-1.3v-1.28h1.3v-2.63h1.58v2.63h1.5v1.28h-1.5v6.21c0,.21.09.38.25.5.17.13.39.19.67.19h.57v1.22ZM427.46,38.04v6.07c0,.78.15,1.36.46,1.71.3.35.8.53,1.48.53.76,0,1.36-.3,1.8-.88.45-.59.67-1.39.67-2.4v-5.02h1.58v9.41h-1.51v-1.43c-.1.17-.22.33-.35.48-.67.8-1.51,1.2-2.52,1.2-1.07,0-1.86-.27-2.4-.8-.53-.54-.8-1.33-.8-2.4v-6.46h1.58ZM419.17,46.34c.83,0,1.49-.33,1.98-.98.5-.65.74-1.52.74-2.63s-.24-1.98-.74-2.64c-.49-.65-1.15-.98-1.98-.98s-1.49.33-1.98.98c-.49.66-.73,1.53-.73,2.64s.24,1.98.73,2.63c.49.65,1.15.98,1.98.98M419.17,47.7c-1.3,0-2.35-.46-3.16-1.37-.81-.91-1.21-2.12-1.21-3.6s.4-2.69,1.21-3.61c.81-.91,1.86-1.37,3.16-1.37s2.37.46,3.17,1.37c.8.92,1.2,2.12,1.2,3.61s-.4,2.68-1.2,3.6c-.8.92-1.86,1.37-3.17,1.37M410.95,38.27h0c-.07-.81-.4-1.44-.96-1.89-.56-.45-1.33-.66-2.29-.66s-1.73.19-2.25.57c-.51.38-.77.94-.77,1.67,0,.5.17.88.51,1.12.34.24,1.03.49,2.05.73l2.25.54c1.2.29,2.07.71,2.58,1.27.52.56.78,1.35.78,2.37,0,1.17-.45,2.1-1.33,2.79-.89.69-2.09,1.03-3.62,1.03-1.68,0-3-.4-3.95-1.19-.92-.78-1.39-1.85-1.39-3.2v-.1h1.6c.04.94.37,1.66,1.03,2.17.65.51,1.55.77,2.72.77,1.08,0,1.89-.19,2.45-.56.55-.36.84-.91.84-1.62,0-.62-.19-1.08-.55-1.38-.36-.29-1.1-.57-2.2-.83l-2.26-.54c-1.13-.27-1.95-.64-2.43-1.12-.48-.48-.73-1.15-.73-1.99,0-1.24.42-2.22,1.26-2.95.84-.72,1.97-1.09,3.41-1.09s2.6.36,3.47,1.09c.86.73,1.33,1.73,1.38,3.01h-1.6Z"/>
</svg>