<?xml version="1.0" encoding="UTF-8"?>
<svg id="_图层_1" data-name="图层 1" xmlns="http://www.w3.org/2000/svg" viewBox="0 0 223.14 223.14">
  <defs>
    <style>
      .cls-1 {
        fill-rule: evenodd;
      }

      .cls-1, .cls-2 {
        fill: #ed6c00;
        stroke-width: 0px;
      }
    </style>
  </defs>
  <path class="cls-2" d="M29.35,147.61h0l-.49-.91c.53-.26.95-.55,1.24-.86.29-.31.48-.68.55-1.12.09-.43.03-.88-.14-1.32-.15-.39-.38-.71-.65-.93-.28-.23-.61-.36-.96-.39-.35-.03-.71.02-1.04.16-.34.14-.63.33-.82.57-.21.25-.33.56-.38.95-.03.26-.03.79,0,1.59.04.8,0,1.39-.1,1.76-.14.47-.37.89-.7,1.23-.34.35-.77.62-1.26.83-.58.21-1.14.31-1.71.28-.57-.02-1.07-.19-1.5-.52-.42-.32-.73-.75-.93-1.26-.24-.58-.3-1.13-.22-1.67.09-.54.35-1.03.78-1.46.42-.44.94-.79,1.59-1.08l.5.94c-.68.33-1.13.71-1.36,1.16-.26.44-.26.97-.01,1.56.25.61.59,1.01,1.02,1.16.44.14.89.13,1.34-.05.41-.15.7-.39.88-.69.18-.29.24-.91.18-1.84-.06-.94-.06-1.6.02-1.99.12-.56.36-1.06.74-1.45.37-.38.85-.69,1.44-.94.59-.23,1.19-.33,1.81-.3.62.03,1.15.2,1.62.53.46.34.81.75,1.02,1.31.28.7.36,1.34.26,1.92-.1.59-.39,1.13-.88,1.63-.49.5-1.08.9-1.83,1.22M24.46,140.44h0c-1.9.53-3.5.6-4.77.2-1.28-.41-2.07-1.19-2.39-2.31-.21-.73-.14-1.47.19-2.21.33-.73.91-1.38,1.73-1.95.82-.57,1.81-1.01,2.93-1.33,1.16-.33,2.25-.46,3.27-.39,1.01.07,1.84.33,2.47.8.64.47,1.06,1.05,1.26,1.75.2.75.14,1.49-.22,2.23-.35.73-.93,1.39-1.75,1.95-.82.55-1.71.98-2.73,1.26M24.18,139.34h0c1.38-.39,2.38-.96,3.04-1.7.65-.74.86-1.51.63-2.3-.21-.78-.8-1.33-1.74-1.61-.94-.29-2.16-.22-3.64.19-.92.26-1.72.6-2.34,1.03-.63.4-1.09.88-1.36,1.4-.26.54-.31,1.07-.16,1.59.21.75.75,1.29,1.65,1.62.88.33,2.2.25,3.91-.24M14.89,126.54h0l-.2-1.07,6.76-1.26c1.18-.22,2.13-.3,2.87-.25.72.06,1.34.28,1.87.69.52.4.85.99,1,1.79.14.76.07,1.42-.22,1.97-.29.55-.76,1-1.44,1.34-.69.33-1.65.61-2.89.86l-6.76,1.24-.21-1.08,6.77-1.25c1.03-.2,1.76-.39,2.22-.61.46-.22.79-.51.99-.88.2-.37.26-.79.17-1.25-.14-.8-.52-1.31-1.09-1.54-.57-.26-1.6-.23-3.07.04l-6.77,1.26ZM26.05,119.23h0l-10.48.79.2,2.73-1.4.1-.49-6.55,1.4-.11.2,2.73,10.5-.8.07,1.1ZM25.58,114.1h0l-11.91-.39.04-1.09,4.91.15.14-4.29-4.91-.16.03-1.1,11.92.39-.04,1.09-5.61-.19-.14,4.3,5.6.18-.03,1.1ZM25.8,105.63h0l-11.83-1.43.71-5.95,1.39.17-.59,4.86,3.63.43.55-4.55,1.39.17-.55,4.55,4.04.49.62-5.05,1.36.16-.73,6.15ZM26.79,97.84h0l-11.72-2.17.67-3.62c.13-.72.35-1.25.62-1.61.29-.33.71-.56,1.28-.69.57-.12,1.19-.12,1.83-.01.83.17,1.5.47,2.01.96.49.48.74,1.12.75,1.93.25-.26.48-.43.7-.54.48-.24,1.05-.45,1.73-.61l3.45-.82-.25,1.34-2.64.63c-.77.18-1.36.35-1.76.48-.42.14-.71.27-.89.4-.18.14-.29.28-.4.44-.06.11-.12.31-.17.59l-.23,1.25,5.2.96-.19,1.08ZM20.44,95.53h0l.42-2.32c.1-.5.1-.89,0-1.19-.09-.31-.3-.56-.58-.76-.3-.2-.63-.34-1.01-.41-.56-.11-1.04-.05-1.45.16-.42.22-.66.62-.78,1.23l-.49,2.58,3.89.72ZM28.57,89.57h0l-11.48-3.18.3-1.08,10.17-1.71-9.02-2.5.29-1.01,11.48,3.17-.3,1.09-10.18,1.7,9.02,2.5-.28,1.01ZM25.1,65.85h0l.5-.98,6.14,3.09c1.07.56,1.87,1.06,2.42,1.55.55.49.91,1.05,1.09,1.68.18.65.07,1.31-.29,2.02-.35.7-.81,1.18-1.38,1.44-.56.26-1.21.33-1.97.19-.74-.13-1.68-.49-2.8-1.06l-6.15-3.1.5-.98,6.14,3.1c.93.47,1.64.75,2.13.86.51.1.95.07,1.33-.11.38-.17.69-.47.89-.89.37-.72.39-1.34.07-1.89-.32-.54-1.14-1.15-2.48-1.83l-6.14-3.1ZM37.16,68.53h0l-10.04-6.42.61-.95,10.22,1.38-7.87-5.05.56-.89,10.03,6.43-.6.95-10.23-1.38,7.89,5.04-.57.89ZM41.98,61.3h0l-9.66-6.99.65-.89,9.66,6.99-.65.88ZM45.32,56.91h0l-11.09-5.41.77-.88,7.96,4.05c.64.33,1.23.64,1.76.95-.41-.52-.8-1.06-1.17-1.61l-5.07-7.37.73-.85,6.87,10.26-.75.86ZM48.91,52.71h0l-8.26-8.6,4.33-4.14.97,1-3.53,3.39,2.52,2.64,3.31-3.17.98,1.01-3.31,3.17,2.82,2.93,3.66-3.52.97,1.01-4.47,4.27ZM54.55,47.24h0l-7.44-9.32,2.87-2.29c.59-.47,1.09-.73,1.52-.8.44-.08.92.03,1.43.31.51.28.98.67,1.39,1.19.53.66.82,1.34.89,2.03.06.7-.17,1.34-.7,1.96.36-.03.66,0,.89.06.52.13,1.07.35,1.7.67l3.15,1.64-1.07.86-2.41-1.26c-.7-.36-1.24-.63-1.64-.79-.4-.18-.71-.26-.94-.28-.22-.02-.41.01-.59.07-.12.04-.29.15-.51.33l-1,.8,3.3,4.13-.86.69ZM51.25,41.34h0l1.85-1.47c.39-.32.65-.61.78-.91.12-.29.14-.61.06-.96-.11-.35-.26-.67-.5-.97-.35-.44-.75-.71-1.19-.83-.46-.1-.92.04-1.4.43l-2.05,1.63,2.46,3.08ZM58.77,38.9h0l.78-.67c.38.47.73.82,1.09,1.05.37.22.76.33,1.22.33.43,0,.85-.14,1.25-.4.35-.23.61-.5.78-.83.18-.33.25-.66.2-1.02-.04-.35-.16-.67-.35-.98-.21-.32-.46-.54-.73-.7-.29-.14-.61-.2-1-.17-.26.02-.78.11-1.56.3-.79.2-1.37.28-1.75.25-.49-.03-.93-.19-1.35-.44-.39-.27-.75-.64-1.05-1.09-.32-.51-.53-1.05-.62-1.62-.07-.56,0-1.08.23-1.56.23-.47.58-.86,1.05-1.18.52-.33,1.06-.5,1.6-.52.54-.02,1.07.14,1.59.47.51.33.97.78,1.36,1.36l-.82.67c-.46-.6-.94-.97-1.41-1.12-.5-.14-1-.05-1.53.31-.56.36-.87.78-.93,1.22-.07.45.03.89.31,1.32.23.36.51.59.84.71.33.11.95.05,1.86-.19.91-.24,1.55-.37,1.95-.37.58,0,1.1.15,1.56.44.46.28.86.7,1.21,1.22.33.55.55,1.1.65,1.71.09.61.02,1.17-.2,1.69-.23.51-.6.94-1.09,1.25-.63.42-1.24.62-1.83.64-.6,0-1.19-.18-1.77-.55-.58-.38-1.1-.89-1.53-1.54M67.92,37.59h0l-5.91-10.34.95-.56,5.92,10.36-.96.54ZM72.55,35.08h0l-4.69-9.41-2.45,1.22-.63-1.25,5.88-2.93.64,1.25-2.44,1.21,4.69,9.42-.99.49ZM79.31,32h0l-1.89-4.69-5.52-5.18,1.22-.5,2.86,2.73c.54.51,1.05,1.02,1.54,1.55,0-.67.03-1.44.07-2.3l.18-3.85,1.19-.48-.52,7.6,1.87,4.69-1.02.41ZM88.2,22.9h0c-.45-1.92-.44-3.51.03-4.77.47-1.25,1.28-2.01,2.41-2.27.75-.18,1.48-.08,2.21.3.71.37,1.33.98,1.86,1.81.52.84.93,1.85,1.19,3,.27,1.17.34,2.27.23,3.27-.11,1.01-.42,1.82-.92,2.44-.5.61-1.1,1.01-1.79,1.17-.77.17-1.5.08-2.23-.32-.72-.39-1.34-1-1.85-1.84-.52-.84-.9-1.77-1.13-2.79M89.31,22.68h0c.32,1.4.83,2.44,1.54,3.11.69.69,1.47.94,2.24.76.81-.19,1.36-.74,1.72-1.67.32-.93.32-2.14-.03-3.63-.21-.94-.52-1.75-.9-2.4-.39-.65-.84-1.12-1.36-1.41-.51-.29-1.03-.38-1.57-.25-.76.17-1.33.69-1.7,1.57-.37.86-.36,2.17.05,3.92M98.83,26.63h0l-1.43-11.83,5.57-.68.17,1.4-4.47.53.44,3.69,3.87-.47.17,1.39-3.87.47.65,5.37-1.09.14ZM111.49,21.84h0l1.04-.1c.02.6.13,1.1.3,1.48.16.39.43.71.8.96.36.25.79.38,1.26.39.42.02.79-.06,1.11-.22.33-.17.57-.42.74-.72.17-.31.26-.65.26-1.01,0-.38-.05-.7-.19-.98-.14-.29-.38-.53-.72-.73-.22-.13-.7-.35-1.47-.63-.75-.29-1.27-.55-1.58-.79-.38-.31-.67-.69-.83-1.14-.2-.45-.27-.95-.26-1.5.03-.6.17-1.17.42-1.68.25-.5.62-.9,1.09-1.16.46-.25.98-.37,1.53-.36.6.02,1.15.19,1.61.48.46.29.81.73,1.04,1.29.23.56.34,1.19.34,1.9l-1.06.08c-.04-.75-.21-1.32-.52-1.72-.31-.39-.78-.61-1.43-.63-.66-.02-1.15.14-1.47.48-.31.34-.48.75-.5,1.25,0,.43.09.79.29,1.07.2.28.75.58,1.63.9.88.31,1.49.59,1.82.81.46.33.81.75,1.02,1.25.21.49.31,1.05.28,1.69,0,.64-.15,1.22-.42,1.78-.26.55-.64.98-1.14,1.27-.48.3-1.01.44-1.61.42-.75-.02-1.37-.21-1.87-.54-.49-.33-.86-.81-1.13-1.45-.27-.64-.4-1.36-.39-2.15M125.95,22.61h0l1.04.52c-.38,1.27-.9,2.18-1.58,2.79-.67.59-1.44.86-2.3.75-.88-.1-1.58-.45-2.06-1.03-.5-.59-.83-1.39-1-2.41-.18-1.02-.19-2.09-.06-3.22.16-1.22.45-2.28.89-3.16.44-.89.98-1.52,1.65-1.93.66-.4,1.36-.55,2.08-.47.82.1,1.48.49,1.96,1.15.49.67.78,1.57.87,2.69l-1.11.23c-.08-.88-.29-1.55-.6-1.98-.32-.43-.75-.68-1.3-.76-.64-.07-1.19.08-1.65.46-.49.39-.85.94-1.13,1.64-.24.72-.42,1.46-.52,2.24-.13,1.01-.13,1.89-.02,2.67.11.78.37,1.38.75,1.8.39.42.84.66,1.33.73.6.06,1.16-.13,1.63-.57.49-.45.86-1.17,1.14-2.15M128.16,27.31h0l2.17-11.72,1.08.2-2.17,11.71-1.08-.2ZM131.29,27.93h0l3.2-11.48,5.78,1.61-.39,1.35-4.71-1.31-.98,3.52,4.42,1.23-.39,1.35-4.4-1.22-1.08,3.9,4.89,1.38-.37,1.35-5.96-1.66ZM138.84,29.97h0l4.44-11.06,1.05.42.55,10.3,3.49-8.68.98.39-4.45,11.06-1.05-.43-.55-10.3-3.49,8.68-.97-.39ZM153.91,32.04h0l.8.86c-.79,1.05-1.59,1.74-2.44,2.08-.84.33-1.64.31-2.41-.08-.8-.4-1.33-.97-1.6-1.68-.27-.72-.3-1.58-.12-2.6.19-1.02.54-2.04,1.05-3.05.56-1.1,1.21-2,1.91-2.67.7-.67,1.45-1.09,2.21-1.24.75-.16,1.47-.06,2.11.26.74.38,1.23.96,1.47,1.76.21.8.19,1.73-.11,2.82l-1.13-.16c.23-.86.26-1.55.12-2.07-.16-.52-.48-.9-.98-1.15-.54-.28-1.13-.33-1.7-.13-.58.2-1.13.58-1.61,1.17-.5.58-.91,1.22-1.25,1.93-.48.9-.77,1.74-.92,2.5-.16.76-.13,1.41.09,1.93.21.54.54.91.99,1.14.55.28,1.13.28,1.73.02.61-.26,1.22-.8,1.8-1.63M154.35,36.95h0l6.48-10,5.03,3.26-.76,1.18-4.1-2.66-1.99,3.07,3.84,2.5-.76,1.16-3.84-2.49-2.2,3.41,4.27,2.76-.77,1.17-5.19-3.36ZM164.38,43.68h0l10.23-6.9.9.79-5.26,11.21-.94-.81,1.63-3.36-2.63-2.3-3.06,2.14-.88-.76ZM169.41,41.55h0l2.13,1.86,1.5-3.06c.47-.92.86-1.68,1.18-2.27-.59.52-1.2.98-1.84,1.43l-2.97,2.04ZM171,49.44h0l8.65-8.19.79.81-3.82,9.6,6.81-6.43.72.77-8.66,8.19-.78-.81,3.81-9.6-6.8,6.42-.72-.76ZM176.82,55.63h0l9.3-7.43,1.79,2.23c.41.51.67.92.79,1.25.18.47.2.97.08,1.49-.13.67-.45,1.35-.97,2.04-.51.69-1.18,1.36-2,2.03-.71.56-1.39,1-2.02,1.32-.64.32-1.21.55-1.72.64-.5.11-.94.14-1.3.08-.38-.05-.74-.18-1.08-.41-.36-.21-.68-.52-1-.92l-1.86-2.34ZM178.59,55.63h0l1.11,1.38c.33.42.66.72.97.87.31.14.62.21.95.19.45-.03.96-.18,1.56-.47.58-.28,1.22-.7,1.93-1.26.98-.78,1.63-1.49,1.97-2.13.36-.64.5-1.19.41-1.65-.05-.33-.29-.76-.7-1.26l-1.08-1.36-7.13,5.69ZM186.12,68.86h0l9.09-5.3-1.38-2.36,1.21-.7,3.31,5.68-1.22.71-1.38-2.37-9.08,5.3-.55-.95ZM188.55,73.36h0l10.86-4.91,2.47,5.45-1.28.58-2.02-4.45-3.34,1.5,1.89,4.17-1.29.58-1.87-4.17-3.71,1.67,2.11,4.64-1.28.58-2.55-5.64ZM197.61,84.73h0v1.18c-1.31.21-2.38.14-3.22-.19-.85-.35-1.4-.92-1.69-1.72-.29-.85-.28-1.63.03-2.33.3-.7.88-1.35,1.72-1.95.84-.6,1.79-1.1,2.88-1.47,1.17-.41,2.23-.61,3.22-.6.99,0,1.8.22,2.45.64.65.42,1.1.97,1.33,1.65.28.8.23,1.56-.17,2.27-.38.73-1.06,1.39-2.02,1.97l-.7-.9c.76-.47,1.25-.93,1.51-1.41.26-.47.28-.98.1-1.49-.2-.6-.59-1.03-1.14-1.3-.55-.25-1.22-.35-1.96-.27-.76.08-1.51.25-2.26.5-.95.34-1.75.73-2.39,1.17-.64.44-1.08.92-1.3,1.45-.21.53-.23,1.04-.06,1.52.2.58.62.98,1.23,1.22.64.23,1.44.26,2.44.06M194.43,88.62h0l11.61-2.68.25,1.07-4.79,1.1.96,4.19,4.79-1.11.25,1.06-11.62,2.69-.25-1.07,5.48-1.26-.97-4.18-5.46,1.25-.25-1.07ZM196.31,96.85h0l11.84-1.43.14,1.11-8.77,5.45,9.29-1.13.13,1.05-11.83,1.43-.14-1.13,8.78-5.43-9.3,1.11-.13-1.04ZM203.11,104.77h0c1.97-.07,3.53.25,4.67.96,1.14.71,1.72,1.64,1.77,2.81.02.77-.23,1.47-.72,2.1-.51.63-1.23,1.13-2.16,1.48-.91.35-1.99.54-3.18.58-1.2.04-2.28-.09-3.25-.4-.95-.31-1.7-.77-2.21-1.37-.5-.61-.78-1.28-.8-2-.02-.78.23-1.49.75-2.12.51-.63,1.24-1.13,2.17-1.48.92-.33,1.9-.52,2.96-.56M203.11,105.92h0c-1.44.04-2.56.34-3.37.9-.8.56-1.18,1.25-1.16,2.06.03.83.47,1.5,1.32,2,.84.51,2.05.73,3.57.69.97-.04,1.81-.18,2.52-.43.72-.26,1.26-.6,1.65-1.06.38-.44.57-.94.54-1.49-.03-.77-.43-1.43-1.21-1.96-.79-.54-2.06-.78-3.86-.71M197.49,114.39h0l11.89.9-.08,1.09-10.47-.78-.33,4.07-1.38-.11.38-5.17ZM202.77,121.35h0c1.95.23,3.45.78,4.48,1.65,1.02.86,1.46,1.89,1.31,3.05-.08.76-.43,1.42-1.02,1.96-.59.55-1.37.92-2.35,1.13-.97.22-2.05.25-3.23.1-1.2-.14-2.25-.44-3.16-.9-.9-.44-1.56-1.01-1.98-1.67-.41-.69-.58-1.39-.49-2.09.1-.78.46-1.44,1.06-1.99.61-.55,1.41-.92,2.37-1.12.97-.2,1.97-.26,3.01-.11M202.61,122.46h0c-1.42-.17-2.58-.04-3.45.4-.89.44-1.38,1.06-1.48,1.86-.09.82.24,1.55,1,2.18.76.63,1.91,1.03,3.43,1.22.95.11,1.81.1,2.56-.05.74-.14,1.33-.41,1.78-.8.45-.38.69-.84.76-1.39.11-.78-.2-1.48-.89-2.13-.7-.65-1.94-1.07-3.71-1.3M199.06,135.07h0l1.34.39-.97,3.36-4.25-1.22c-.43-.69-.74-1.36-.87-2-.13-.64-.12-1.24.05-1.83.22-.77.66-1.43,1.33-1.92.68-.5,1.51-.78,2.51-.83,1-.07,2.08.06,3.2.39,1.11.33,2.09.79,2.97,1.39.86.6,1.45,1.29,1.75,2.02.29.74.31,1.51.08,2.31-.17.59-.44,1.06-.86,1.45-.39.38-.88.64-1.42.77-.57.13-1.25.14-2.06.06l-.08-1.07c.6.05,1.11.04,1.49-.05.39-.08.72-.24,1.02-.51.29-.28.51-.61.62-1.01.14-.48.14-.93.04-1.34-.1-.42-.3-.79-.58-1.1-.29-.32-.62-.59-.99-.83-.64-.41-1.38-.73-2.21-.98-1.02-.29-1.91-.42-2.68-.38-.76.04-1.37.26-1.84.63-.47.37-.79.82-.94,1.33-.13.46-.13.94,0,1.45.13.51.3.91.53,1.22l2.14.62.69-2.33ZM192.33,141.03l4.69,1.89,7.57-.42-.5,1.23-3.95.17c-.75.03-1.47.05-2.19.04.48.47,1.02,1.01,1.6,1.63l2.66,2.81-.47,1.19-5.13-5.63-4.69-1.89.4-1.02Z"/>
  <path class="cls-2" d="M163.81,163.82h0c-13.95,13.96-32.5,21.64-52.24,21.64s-38.29-7.68-52.24-21.64c-13.96-13.95-21.64-32.5-21.64-52.24s7.67-38.29,21.64-52.25c13.95-13.96,32.51-21.64,52.24-21.64s38.29,7.69,52.24,21.64c13.96,13.96,21.64,32.51,21.64,52.25s-7.68,38.29-21.64,52.24M164.94,58.22c-14.27-14.25-33.22-22.11-53.37-22.11s-39.11,7.86-53.36,22.11c-14.25,14.25-22.11,33.2-22.11,53.36s7.85,39.1,22.11,53.36c14.25,14.25,33.21,22.1,53.36,22.1s39.1-7.85,53.37-22.1c14.24-14.25,22.1-33.2,22.1-53.36s-7.86-39.11-22.1-53.36"/>
  <path class="cls-2" d="M188.47,188.48h0c-20.54,20.54-47.85,31.86-76.9,31.86s-56.36-11.31-76.9-31.86C14.13,167.94,2.82,140.63,2.82,111.57s11.31-56.37,31.85-76.9C55.21,14.13,82.52,2.8,111.57,2.8s56.37,11.33,76.9,31.87c20.54,20.54,31.84,47.86,31.84,76.9s-11.3,56.37-31.84,76.9M190.46,32.68C169.39,11.6,141.37,0,111.57,0S53.76,11.61,32.68,32.68C11.61,53.76,0,81.77,0,111.57s11.61,57.82,32.68,78.89c21.07,21.07,49.09,32.67,78.89,32.67s57.82-11.6,78.89-32.67c21.07-21.07,32.68-49.09,32.68-78.89s-11.61-57.82-32.68-78.9"/>
  <path class="cls-1" d="M38.4,173.1h0c-.49.85-.73.43-1.46.5-.52.05-1.01.3-1.62.2-.2-.03-.58-.09-.79-.13-.33-.09-.49-.24-.82-.24-.71,0-1.3.81-.82,1.96.66,1.6.02,1.43,1.5,2.03.96.41,2.91.91,3.4,1.74-.09.31-.65.94-1.24.78-.24-.08-.09-.06-.33-.16l-.33-.13c-.5.84.18.42-.53,1.78l1.15,1.13c2-.8,1.29-3.25,3.36-2.55.71.23.79.05,1.4.14.76,1.46-.35,1.13-.77,2.57-.31,1.09.96,2.29.96,2.29,1.04.1,1.76-1.39,2.43-2.29l2.27-2.89c.36-.46,1.27-1.34,2.2-2.58.4-.52.73-.65,1.26-1.22.52-.55.73-.88,1.21-1.54.33-.48.76-.79,1.16-1.32.69-.95.57-1.08.3-1.53-.78-1.27-.78-2.05-2.19-2.19-.58-.05-.83.2-1.33.18l-2.93-.09c-.63,0-.97.13-1.5-.19.5-.52.59-.58,1.24-.68.64-.09.72-.28,1.3-.33,2.33-.24.33-.27,2.82.01.61.08.93-.12,1.29-.74.65-1.15-.28-.47.16-2.22.13-.54.09-.37.38-.63.63-.57.74-.54,1.21-1.41-.73-1.94-1.46-1.47-1.46-1.47.03.04-.07.05-.08.06l-3.24,2.29c-1.38.87-4.4,0-5.84-.59-.74-.31-.34.06-1.02-.27l-3.11-1.33c-.63-.16-.47-.2-1-.04-.4.1-.52.21-.79.67.3.73.28.93,1.15,1.49,1.33.86,4.94,1.85,5.55,2.59-.03.27.16.04-.19.4-.29.34-2.31,1.06-2.67.99-.84-.14-.58-.7-1.67-.16-.7.35-.86.78-1.52.89-.41.06-.38.01-.76.13-.51.16-.27.14-.84.16-1.85.09-.93.37-2.38.33-.64-.03-1.13.19-1.61.17-.5-.02-.63-.17-.94-.22-.78-.12-2.47,1.37-.89,2.5,1.42,1.02,1.07-1.13,6.51-.95.56.04,1.24.12,1.56.66.15.22.17.45.31.72.21.38.37.45.59.75M35.44,176.17h0c.57-.02,1.33.04,2.22.04.42,0,.73.02,1.18.03.51,0,.71,0,1.18.42-.25.45-.28.56-.71.65l-.19.02c-.86.06-3.4-.6-3.67-1.15M40.62,172.77h0l.76-1.21,1.92-.17c.5-.03,1.53-.19,1.97.22-.26.73-.36.38-1.06.67-.6.25-.5.32-1.21.38-.63.06-1.73.96-2.39.11M42.14,180.54l-.47-.28.18-.62c.08-.25.14-.29.06-.57-.15-.46-.48-.59-.69-.94.29-.57.88-.84,1.43-1.21.32-.2.35-.21.68-.47.46-.36.48-.25.8-.58.1-.7-.36-.81,0-1.67.4-.17.4-.09.8-.13l2.34-.24c-.24,1-1.72,2.67-2.44,3.42-.46.51-1.95,3-2.68,3.28"/>
  <path class="cls-1" d="M178.05,178.88h0s0-.09.01-.12c0-.02,0-.08.03-.11l.41-2.59c.21-1.89.39-1.11.63-2.61.36-2.18.78-1.78.82-2.73.08-1.01.39-.42.72-1.31.31-.87-.24-.36.76-1.18.35,2.02-1.04,2.39.07,3.49-.3.39-.86,1.98-1,2.49-.26.86-.41,1.47-.99,2.38-.9,1.42-.96.94-.6,1.57,1.12-.03,1.76-1.46,2.29-2.16,0-.14,1.05-2,1.21-2.34.34-.78.51-1.78,1.33-2.48.47,1.66-1.02,3.55-.86,4.16.25.87.91.78.88,1.29.08.57.14.12-.28.68l-1.53,1.91c-.48.73-2.26,2-2.4,2.4,1.29,1.56,5.53-4.29,6.7-4.29.27.07.06-.14.47.31.12.13.21.28.27.42.36.79.15,1.79-.46,2.46.53.46-.02-.13.41.25.47.41.09.5.75,1.27,1.69,0,3.36-.48,2.78-2.53-.13-.47-.12-.71-.3-1.15-.41-.94-1.53-2.11-1.59-3.2,2.47-2.18,5.14-2.89,3.4-4.59-.42-.39-.45-.2-.68-.7-.07-.15.05-.88-.7-.56-.7.3-1.33,1.31-1.93,1.84-1.08.93-1.95,2-2.11,2.12-.7-.18-.91-.36-.93-1.21l-.26-3.46c.01-.55-.29-1.29-.89-1.51-.78-.27-.89.45-1.59.49-.35-.61.09-.95.39-1.45.23-.39.66-.91.94-1.38.24-.39.09-.36.26-.78.15-.33.25-.34.31-.66.08-.33-.09-1.82-1.22-1.08-.15.1-.41.32-.56.43-.36.29-.76.54-1.08.89-.36.4-1.31,4.35-2.41,5.41-.45-.67-.13,0-.14-.51l.32-1.38c.71-2.79.31-1.84.55-3.74.12-.88.76-1.04.19-1.86-.84-.28-1.2.15-1.89.21-.55-1.05,1.42-1.84-.63-2.31h-.89c-.4-.79-.22-1-1.21-1.17-1.55.85-.33,2.21-.11,3.36.14.65-.07.31-.11.87-.07.75.22-.2-.16,1.2-.03.11-.05.26-.09.38-.12.34-.23.48-.58.69-.44-.27-.26-.5-.98-.58-1.4-.13-1.44,1.42-1.33,2.33-.42.3-.62.25-1.02.39l-.21.67c-.31,1.17,1.13,2.88,1.83,3.77.5.61.55,1.18.83,1.41.25.18.94.29,1.38.18.92-.21.89-.34,1.2-.96.55-1.09.92-.48.68-1.34-.1-.38-.71-.9.25-1.04l-.03.59v.09c-.08,2.3-.59,2.89-.54,3.45.11,1.34-.98,3-1.3,3.95-.51,1.62.73,2.16,1.13,2.41.58-.43,1.03-.73,1.38-1.13M177.56,166.85h0c-.26-.48-.1-1.03.3-1.48.26.61.25,1.08-.3,1.48M181.76,169.24c.27-1.29-.25-.88,1-1.45.27.78-.12,1-.42,1.64-.34.75,0,1.06-.84,1.52l-.03-.92c.09-.52.16-.22.29-.78"/>
  <path class="cls-2" d="M108.52,158.28v-19.92c-.09-1.38-1.26-2.48-2.65-2.48l.06-.03c-7.73-.18-14.82-.96-20.53-2.15-.52-.1-1.24-.08-1.55.45-.33.56-.19.99,0,1.66.18.67,1.03,3.49,1.03,3.49.54,2.38,3.71,2.95,5.72,3.38l9.02,1.95c4.33.95,5.52,4.31,5.52,8.76v3.96c0,3.47-.58,5.71-2.88,5.81-2.92.14-5.05-2.78-6.19-5.31-.03-.05-.06-.11-.07-.16l-.04-.09c-.1-.23-.19-.44-.27-.65-.77-1.92-2.49-6.1-2.49-6.1,0,0-.23-.75-.59-.99-.36-.26-.68-.34-1.14-.34h-3.05l3.93,13.62c.8,2.78,1.79,6,3.99,8.06,2.7,2.54,7.12,3.92,12.97,3.92s10.28-1.38,12.98-3.92c2.19-2.06,3.19-5.27,4-8.06l3.92-13.62h-3.06c-.44,0-.77.08-1.13.34-.36.24-.59.99-.59.99,0,0-1.71,4.18-2.48,6.1-.09.2-.18.42-.27.65l-.03.09s-.04.11-.07.16c-1.15,2.53-3.29,5.45-6.21,5.31-2.3-.1-2.87-2.34-2.87-5.81v-3.96c0-4.45,1.18-7.82,5.53-8.76l8.99-1.95c2.02-.43,5.19-1,5.73-3.38,0,0,.83-2.82,1.03-3.49.19-.67.34-1.1,0-1.66-.31-.53-1.01-.55-1.55-.45-5.72,1.19-12.78,1.97-20.52,2.15l.06.03c-1.4,0-2.56,1.1-2.65,2.48v19.92c0,.44-.35.8-.8.8s-.8-.36-.8-.8"/>
  <path class="cls-2" d="M109.77,56.23s-6.11,3.42-8.31,8.02c-.93,1.95-.39,3.21,3.15,1.02,5.03-3.1,9.57-5.44,14.96-7.36,5.96-2.1,16.87-4.65,17.64-4.28.33.16.35.78-.29,1.35-15.44,14.19-17.1,24.76-12.89,26.42,2.07.83,5.58.36,8.71-.67,3.13-1.02,6.18-2.34,9.69-2.45,8.24-.25,11.69,15.38,2.79,30.18-4.99,8.32-18.28,18.88-19.23,18.49-.42-.17-.58-.64-.39-1.41.12-.51,4.89-11,1.11-12.67-.59-.26-2.07.16-3.47,3.49-1.81,4.31-3.18,5.1-3.92,4.92-.75-.18-.49-1.37-.36-2.17.11-.81.28-1.49-.17-1.19-.43.29-4.69,5.06-6.02,4.97-.49-.05-.78-.56-.47-1.27.29-.71.62-1.67.62-1.67,0,0-7.32,7.11-16.27,8.82-.67.13-2.44.56-3.01.26-.31-.16-.51-.9.05-1.29.58-.38,10.06-5.29,14.16-12.19,1.24-2.1,1.26-3.16.93-3.72-.83-1.41-4.87-.01-7.51,1.12-2.65,1.13-6.62,3.44-11.67,4.29-6.26,1.08-13.72-.83-17.58-5.63-4.45-5.54-4.72-11-4.08-16.52,1.97-17.34,18.54-28.32,24.29-31.86,6.94-4.27,17.22-8.72,18.02-8.39.4.16.58.77-.5,1.41"/>
  <g>
    <path class="cls-1" d="M160.69,179.89c.35.82.74.85,1.14,1.55-.15.53-.46,1.1-.65,1.65-.29.88-.12,1.01-.89,1.62-1.01-1.3-.78-3.59-1.27-4.96-.92-2.55-3.55-2.07-3.73-.43-.11,1.24,1.44,2.32,2.41,5.01.55,1.52.79,3.12.23,4.65-.9,2.52-3.79,4.61-5.86,6.26-2.39,1.89,0,3.35,1.47,2.77.96-.38,1.68-1.04,2.39-1.79,1.06-1.1,2.91-4.47,3.53-3.82.7.72-.29-.58.15.17.2.31.08.71.09,1.1.02.8-.31,2.03-.81,2.68l-4.67,4.96c-.57.47-1.12.7-1.18,1.2.24-.03,0,.05.31-.12.05-.03.18-.12.23-.16,1.38-.9,1.01-.71,2.67-.96,1.9-.28,3.2-1.42,4.46-3.15,2.52-3.48,1.68-4.54,1.23-7.67-.08-.59-.23-1.58-.06-2.07l2.63-5.44c.73-1.63,1.86-2.51.08-3.6-.62-.37-1.24-.45-1.89-.3-.41.09-1.86.77-2,.87"/>
    <path class="cls-1" d="M165.07,189c-.29.1.24-.23-.44.15-.16.1-.22.14-.36.26-.25.21-.46.47-.66.69-3.47,3.96,2.36,2.59,4.85,2.86.28.03.46,0,.75.02,2.81.22,2.88.96,3.46-1.32.36-1.37-1.3-2.6-1.58-2.85-1.32-1.17-.79-1.78-2.88-1.31-.77.19-.86.43-1.6.69-1.6.57-.82.57-1.55.82"/>
  </g>
  <g>
    <path class="cls-2" d="M123.63,203.81h0c.11-.15.22-.28.27-.42.26-.8,1.33-1.4,1.9-2.65.05-.09.22-.32.1-.3-.12.01-2.03,1.83-2.14,1.91-.09.08-.16.12-.22.16-.02-.73-.18-1.56-.18-1.59v-.33c-.03-.12,0-.17.12-.21.02,0,.07-.03.07-.04.01-.07.06-.09.1-.12.08-.08.18-.16.28-.2.1-.05.19-.11.28-.16.11-.06.24-.11.35-.16.13-.05.28-.11.41-.17,0,0,.02-.02.03-.02,1.76-1.21.3-1.55.27-1.55-.09-.02-.59-.17-1.96.25-.09.02-.23-.2-.24-.31,0-.07-.04-.14-.03-.21,0,0-.07-1.45-.11-1.59,0-.05-.01-.11-.01-.16,0-.08,0-.17,0-.25,0,0,0-.02,0-.03,0-.06.02-.13.02-.19.03-.05.03-.1.02-.15.07-.68.06-.96-.67-1.31-.93-.44-2.36-.43-2.97.03-.49.35-.48.67-.25,1.22.03.05.04.1.07.14.03.07.07.15.11.23,0,.03.01.06.02.08.03.09.73,3.33.75,3.42,0,.05,0,.08.02.12,0,.1,0,.21.02.31.01.17.02.33.03.5,0,.04,0,.07-.05.09,0,0-.03.03-.03.05,0,.08-.05.13-.09.19-.02.06-.8.58-1.61,1.12-.34.23-.55.59-.85.81-.48.31-1,.44-1.02.47,0,0-.03.02-.05.03-.1.05-.2.1-.28.17-.06.05-.11.1-.16.16-.06.07-.08.22,0,.24.41.07.37,1.17.95,1.1,0,0,.02.02.03.03.14.05.29.12.45.16.05,0,.27-.04.33-.06.03-.02.55-.37,1.08-.89.57-.56,1.35-.91,1.37-.93,0-.02.05-.04.07-.04.04,0,.08-.02.11-.05.06-.04.11-.08.16-.11.02-.02.03-.02.05-.02,0,.02.02.04.02.07,0,.13.01.25.01.38-.01.15.25,1.83.23,1.98-.02.08-.02.16-.03.24,0,.06-.03.11-.08.16-.04.04-.08.1-.12.14-.09.09-3.01,3.4-3.05,3.44-.06.06-.11.11-.18.14-.02,0-.03.02-.05.03-.07.06-.11.16-.18.22,0,0,0,0-.02,0,0,.08-.06.1-.13.12-.06.01-.46.69-.47,1.05,0,.36.4.59.49.97.11.51.62.68.95.64.45-.05.75-.39.78-.41.03-.03.94-2.34.97-2.4.02-.09.99.68,1.41,1.27.17.25.48.71.37,1.3-.12.66.43,1.35,1.12,1.34,1.03-.02,2.05-1.51,1.82-3.21-.17-1.27-.13-1.57-.13-1.64,0-.14-.05-.29-.08-.43v-.18c0-.17-.01-.33-.05-.5-.02-.09-.43-3.25-.45-3.3,0-.07-.03-.14-.06-.19M121.52,208.94s-.06.58-.04.58c-.83-.48-1.56-.65-1.57-.65-.02-.04,1.17-2.17,1.2-2.22.01-.03.02-.04.03-.05,0-.01.03-.01.05-.02,0,.02.36,2.24.34,2.36"/>
    <path class="cls-2" d="M131.98,205.54s.69,2.17.71,2.14c.02-.01.74.37.75.38.07.05.14.07.22.08.02,0,.05.02.06.03.06.05.11.07.17.08.03.01.05.03.08.03.06.02.1.05.15.06.06,0,1.82.77,3.05,1.11,1.23.34,1.92.27,1.98.3,0,0,.02.02.02,0,.1,0,.19-.03.28-.05.06-.02.13-.03.19,0,.03.02.06.02.08.02.11,0,.94-.06.99-.56.08-.03.09-.12.14-.19.04-.07.08-.89,1.28-1.62.58-.34,1.34-.57,1.27-.82-.34-1.22-4.13-.93-4.28-.92-.08,0-5.03-.37-5.22-.39,0-.02-1.92.33-1.92.33"/>
    <path class="cls-2" d="M136.69,206.01l1.17-.2c-1.38-.12-2.69-.36-3.39-.56.03-.05,1.95-3.75,1.95-3.75.19-.43.14-.57-.03-1.02-.03.02-.31-.95-1.38-.76-.06,0-1.71.75-1.83.81-.02.01-.25.07-.35.09-.05.02-.07.03-.11.06-.03.01-.06.03-.11.06.01-.06.01-.09.03-.14,0-.07-.15-1.18-.17-1.29-.01-.07-.12-.62.09-.98.22-.4,4.05-2.01,4.16-2.15,1.07-1.13.33-1.4-.21-2.3-.2-.36-.85-.27-2.03.08-.19.05-2.03.93-2.07.95-.02,0,0,.08-.02.07-.02-.01-.02-.04-.02-.06v-.13c0-.07-.35-2.17-.4-2.21-.04-.04-.29-.62-1.3-.67-.2,0-.67.03-.88.07-.2.03-.64.3-.81.33-.33.06-.46.45-.47.45-.02.02-.03.06-.06.07-.05.03-.03.08-.05.11-.02.07.03.08.07.11.02,0,.03.01.05.02.14.09.24.19.22.37,0,.17.49,3.38.49,3.51,0,.16.01.31-.05.46-.01.03-.03.07-.03.11-.03.09-.03.17-.04.25,0,.06-.03.11-.07.16-.03.03-.07.06-.1.1-.07.08-2,1.97-2.1,2.04-.05.04-.08.07-.14.1-.08.03-.17.03-.25.06-.42.1-.51.66-.54.7-.02.04-.02.1-.02.15,0,.04,0,.2.05.21.02,0,.21.66.63.53.75-.24.99.28,1.44-.12.01,0,.03-.01.05-.03.02-.01.03-.02.06-.03.13-.07.63-.76.69-.81.12-.13.42-.56.53-.69.02,0,.03,0,.03-.01,0-.07.21,1.76.22,1.8,0,0,.03.1.05.55.05,1.3-2.97,2.2-3.13,2.22-.03,0-.38.11.19.44.17.1.92.53,2.15.8.72.15,1.29.52,1.34.52,0,.03.13.04.19.09-.02.03-.05.06-.06.08-.01.03-.04.06-.05.09-.03.04-.06.07-.08.11-.02.04-.05.08-.08.12-.05.08-.68.94-1.77,1.05-.04.01-.07,0-.12,0-.14.02-4.14-.39-4.22-.38-.02,0-.38-.09-.39-.09l.06.39s.36.1.37.1c.11-.03,1.78.47,1.88.45,0,0,.01.01.01.01.04.04,2.09.8,2.11.83,0,0,0,0,0,.01-.02.02-.03.03-.05.05.03.06.1.03.15.07-.06.04-.12.07-.16.06-.13-.05-.27-.02-.41-.05-.02,0-.04,0-.06,0,.05.05.11.06.15.1.03.04.09.03.14.06.05.02.61.37.7.44.02.02.05.03.08.03.12,0,.26,0,.4,0,.08,0,.15.02.22.06.05.03.1.09.16.04.01,0,.03,0,.03,0,.03,0,.91.43,1.72-.1.51-.33,1.03-1.13,1.03-1.15.03,0,.59-1.13.65-1.18,0-.01.04-.01.05,0,.05.05.13.08.2.08.02,0,.04,0,.05.03.02.01,4.04.23,4.38.31.01.01-.01,0,0,0l-.85-2.13ZM131.92,204.25l-.5.64c-.35.11-1.3-.07-1.3-.08.02,0-.75-.14-.58-.3.05-.05,2.63-1.62,3.02-1.68.16-.01-.11.68-.63,1.43"/>
  </g>
  <path class="cls-1" d="M103.58,197.99c-.36-.67-1.17-.59-1.37.03-.33.96.15.81-.8,1.51-.38.28-.86.82-1.2,1-1.06.55-1.54.95-1.54.95-.09-.78.26-2.43.55-2.81,1.12-1.46.5-.27,1.37-2.16.51-1.13.95-2.35,1.04-3.66.05-.88.28-1.54.3-2.21.04-1.07-.86-3.1-1.69-3.34-.25,1-.17,2.47-.24,3.55-.09,1.42-.41,2.04-.58,3.27-.16,1.05-1.35,4.2-1.72,4.73-.3.44-.23.35-.53.42-.57-1.13.39-1.32.82-1.88.25-.88.01-1.51-.75-1.69-.88-.21-1.31.21-1.66.72-.46.65-.82.81-1.28,1.21-.6.5-.63,1.09-1.44,1.09-.25-.49,0-.29-.42-1.2-.23-.54-.07-.65.17-1.25.31-.76.08-.54,0-1.21-.06-.53.09-1.09,0-1.58l-.2-.62c-.56-1.58-2.54-1.36-3.29-.73l-.3.26c-.25.2-.1.04-.32.24-1.29,1.19-1.45,2.02-2.31,2.7-.68.54-.83.98-2.63,2.35-.53.41-1.61,1.12-1.81,1.66.51-.05.31-.13.77-.17.93-.09.38.11.67.26l1.72.17c.97-.09,2.06-.78,2.72-.76.12,0,.17-.01.19-.03-.14-.1.05-.04,0,0,.04.03.08.07.18.12-1.68,1.06-.32.86-1.97,1.75-.79.41-.65.22-1.36.16-.37-.03-2.01.9-2.48,1.12-.53.25-2.18.92-2.69.96-.91.09-1-.16-1.6-.36-1.63,1.27-.62,2.47-.02,2.61,1.56.36,4.96-1.42,6.29-1.99.48-.2.96-.52,1.36-.69,1.06-.45,1.06-.38,1.36-.16-.21.48-1.39,2.06-1.81,2.32-.57.34-.71.32-1.05,1.05-.25.58-.52.99-.43,1.69.42.45.84.83,1.44.89.97.08.85-.56,1.57-.78.3.63.26,1.43.6,1.91.39.56,1.5.64,1.93.18l2.28-6.18c.24-.39.04.22.24-.5.38-1.43.8-1.33,2.13-2.75.31-.34,1.03-1.06,1.68-.99-.03,1.38-.93,1.85-1.32,3.22-.44,1.53-1.53.77-1.36,3.13,1.04.42.99.69,1.84-.06.41-.37,1.2-.94,1.89-.78.31,1.01-.78,4.1-1.13,5.36-.59,2.16.33.38-1.16,3.47-.85,1.75-1.01,2.28.01,2.92.64.39,2.21.71,2.45-1.47l.31-4.43c.08-.68,1.62-2.9,1.42-5.86-.1-1.63,1.04-1.83,2.92-2.86,1.54-.84,3.25-2.03,2.26-3.82M96.25,202.37c-.08-.22-.15-.44-.03-.73.14-.35.28-.34.69-.36-.15.52-.11,1.06-.66,1.1"/>
  <g>
    <path class="cls-1" d="M74.32,191.7c-.95-1.98-2.89-2.2-4.7-3.1-.86-.43-.54-.6-1.25-.81-.32-.09-.88.03-1.29.03-1.76-.03-5.74-1.48-7.64-1.99-1.35-.36-4.36-1.23-5.49-1.2,0,0-.73.14-.92.3-.35.29-.09,1.26-.09,1.26.71.57,3.55,1.67,4.58,1.68l4.57.96c.77.22.8,0,1.4.02.42,0,1.1.17,1.51.25-.44.69-.81.58-1.46.78-.7.21-.98.39-1.59.58l-2.57.23c-.26-.03-.3-.07-.53-.1-.6-.1-.12-.05-.52-.05-1.02,0-2.27.15-3.52.06-2.34-.17-2.03-.84-2.85,1.5,3.61,3.64,3.77,1.26,5.27,2.29.15.89-.53.43.39,2.28,1.1,2.23,2.31,1.39,4.54,1.11,1.02-.12,1.38-.4,2.29-.78,2.29-.96,4.53-.92,5.16-2.98.24-.77.26-.59-.07-1.24-.28-.55-.93-1.76-.77-2.28,2.87.58,4.38,4.03,5.55,1.22M65.9,193.05l-.54.33c-.53.35-.11.18-.75.37-.03,0-.09.01-.12.02-.98.26-.7.59-2.23.55-.48,0-.6-.05-1.3-.58l-.23-.22c.77-.89.39.15,2.97-.26.75-.11.65-.27,1.36-.5,1.44-.5.53-.58,1.39-.47.03.54-.15.53-.55.75"/>
    <path class="cls-1" d="M64.98,182.31c.03,1.15.04,1.43,1.06,2.33,1.45,1.3,3.05,3.77,4.42,3.54,1.13-.18,1.61-1.09,1.69-2.14.08-.95-.37-1.55-.67-2.44-.32-1-1.05-1.32-1.85-2.09-1.46-1.41-2.52-1.75-3.93-.65l-.71,1.45Z"/>
  </g>
</svg>